<?xml version="1.0" standalone="no"?>
<!DOCTYPE svg PUBLIC "-//W3C//DTD SVG 20010904//EN"
 "http://www.w3.org/TR/2001/REC-SVG-20010904/DTD/svg10.dtd">
<svg version="1.0" xmlns="http://www.w3.org/2000/svg"
 width="595.000000pt" height="842.000000pt" viewBox="0 0 595.000000 842.000000"
 preserveAspectRatio="xMidYMid meet">
<metadata>
Created by potrace 1.16, written by Peter Selinger 2001-2019
</metadata>
<g transform="translate(0.000000,842.000000) scale(0.100000,-0.100000)"
fill="#000000" stroke="none">
<path d="M2242 7410 c-597 -75 -1073 -518 -1204 -1118 -28 -130 -30 -403 -4
-537 37 -190 113 -374 221 -535 66 -98 219 -256 324 -335 156 -117 382 -218
576 -256 94 -19 426 -19 520 0 560 110 992 532 1117 1092 30 138 33 426 5 559
-63 295 -185 519 -396 730 -206 205 -426 324 -704 381 -117 24 -342 33 -455
19z m402 -255 c256 -53 501 -199 664 -395 295 -356 354 -844 152 -1256 -187
-383 -565 -633 -982 -651 -344 -15 -646 101 -883 341 -298 301 -409 718 -300
1125 120 448 515 791 980 851 91 11 277 4 369 -15z"/>
<path d="M2585 6515 c-298 -146 -427 -214 -446 -235 -14 -16 -116 -216 -227
-445 -221 -453 -228 -473 -176 -514 15 -12 38 -21 52 -21 39 0 861 405 899
443 35 35 431 838 440 892 3 21 -2 38 -17 58 -43 54 -62 48 -525 -178z m-110
-354 c95 -44 129 -134 85 -221 -56 -109 -210 -121 -276 -20 -64 96 -26 207 82
245 51 18 62 18 109 -4z"/>
</g>
</svg>
