<?xml version="1.0" encoding="UTF-8" standalone="no"?>
<!-- Created with Inkscape (http://www.inkscape.org/) -->

<svg
   width="1024"
   height="1024"
   viewBox="0 0 270.93334 270.93333"
   version="1.1"
   id="svg1"
   inkscape:version="1.4.2 (ebf0e940, 2025-05-08)"
   sodipodi:docname="icon-textcliphistory.svg"
   xmlns:inkscape="http://www.inkscape.org/namespaces/inkscape"
   xmlns:sodipodi="http://sodipodi.sourceforge.net/DTD/sodipodi-0.dtd"
   xmlns:xlink="http://www.w3.org/1999/xlink"
   xmlns="http://www.w3.org/2000/svg"
   xmlns:svg="http://www.w3.org/2000/svg">
  <sodipodi:namedview
     id="namedview1"
     pagecolor="#ffffff"
     bordercolor="#000000"
     borderopacity="0.25"
     inkscape:showpageshadow="2"
     inkscape:pageopacity="0.0"
     inkscape:pagecheckerboard="0"
     inkscape:deskcolor="#d1d1d1"
     inkscape:document-units="px"
     inkscape:zoom="1.143244"
     inkscape:cx="362.56477"
     inkscape:cy="545.37789"
     inkscape:window-width="3440"
     inkscape:window-height="1384"
     inkscape:window-x="0"
     inkscape:window-y="0"
     inkscape:window-maximized="0"
     inkscape:current-layer="layer1" />
  <defs
     id="defs1">
    <linearGradient
       id="linearGradient1"
       inkscape:collect="always">
      <stop
         style="stop-color:#b88e69;stop-opacity:1;"
         offset="0"
         id="stop1" />
      <stop
         style="stop-color:#f0dcaa;stop-opacity:1;"
         offset="1"
         id="stop2" />
    </linearGradient>
    <linearGradient
       inkscape:collect="always"
       xlink:href="#linearGradient1"
       id="linearGradient2"
       x1="135.63782"
       y1="235.51302"
       x2="135.15027"
       y2="24.678398"
       gradientUnits="userSpaceOnUse" />
  </defs>
  <g
     inkscape:label="Layer 1"
     inkscape:groupmode="layer"
     id="layer1">
    <path
       id="text1"
       style="font-size:178.908px;font-family:'SF Pro';-inkscape-font-specification:'SF Pro';text-align:center;text-anchor:middle;stroke-width:14.909;stroke-linecap:round;stroke-opacity:0.501437;fill:url(#linearGradient2)"
       d="M 134.58403 24.37784 C 129.51731 24.37784 125.14945 26.125086 121.48044 29.619381 C 117.86967 33.113676 115.91876 37.336057 115.62757 42.286308 L 107.59033 42.286308 C 105.02785 42.286308 103.01875 43.043293 101.56279 44.557487 C 100.16507 46.071682 99.466281 48.197678 99.466281 50.934876 L 99.466281 60.107443 C 99.466281 62.844641 100.16507 64.97012 101.56279 66.484314 C 103.01875 67.998508 105.02785 68.755494 107.59033 68.755494 L 161.57722 68.755494 C 164.1397 68.755494 166.12022 67.998508 167.51794 66.484314 C 168.97389 64.97012 169.70179 62.844641 169.70179 60.107443 L 169.70179 50.934876 C 169.70179 48.197678 168.97389 46.071682 167.51794 44.557487 C 166.12022 43.043293 164.1397 42.286308 161.57722 42.286308 L 153.5405 42.286308 C 153.24931 37.336057 151.2693 33.113676 147.60029 29.619381 C 143.98952 26.125086 139.65077 24.37784 134.58403 24.37784 z M 134.58403 35.297587 C 136.68061 35.297587 138.45695 36.055089 139.91291 37.569283 C 141.4271 39.02524 142.18409 40.830158 142.18409 42.984973 C 142.18409 45.023312 141.4271 46.799652 139.91291 48.313847 C 138.45695 49.828042 136.68061 50.585026 134.58403 50.585026 C 132.48745 50.585026 130.68201 49.828042 129.16783 48.313847 C 127.71187 46.799652 126.98398 45.023312 126.98398 42.984973 C 126.98398 40.830158 127.71187 39.02524 129.16783 37.569283 C 130.68201 36.055089 132.48745 35.297587 134.58403 35.297587 z M 87.323869 48.66318 C 78.704608 48.66318 72.181662 50.963745 67.755555 55.564567 C 63.329447 60.107151 61.116683 66.950142 61.116683 76.093547 L 61.116683 208.61466 C 61.116683 217.75806 63.358542 224.60105 67.842888 229.14364 C 72.385472 233.74446 79.170272 236.04503 88.197201 236.04503 L 180.97087 236.04503 C 189.9978 236.04503 196.7535 233.74446 201.23785 229.14364 C 205.78043 224.60105 208.05138 217.75806 208.05138 208.61466 L 208.05138 76.093547 C 208.05138 66.950142 205.83863 60.107151 201.41251 55.564567 C 196.98641 50.963745 190.46346 48.66318 181.8442 48.66318 L 179.83502 48.66318 L 179.83502 49.275029 L 179.83502 49.799028 L 179.83502 60.107443 C 179.83502 65.581838 178.14596 70.095168 174.76814 73.647701 C 171.39032 77.141997 166.99337 78.889242 161.57722 78.889242 L 107.59033 78.889242 C 102.17417 78.889242 97.777225 77.141997 94.399407 73.647701 C 91.021587 70.095168 89.333049 65.581838 89.333049 60.107443 L 89.333049 49.799028 L 89.333049 49.275029 L 89.333049 48.66318 L 87.323869 48.66318 z M 135.46667 110.58808 C 141.85212 110.58808 147.84421 111.78367 153.44283 114.17443 C 159.04145 116.56519 163.95915 119.89384 168.19594 124.1609 C 172.43273 128.39769 175.74669 133.31539 178.13745 138.914 C 180.55847 144.51262 181.76875 150.50472 181.76875 156.89017 C 181.76875 163.27562 180.55847 169.26771 178.13745 174.86633 C 175.74669 180.46495 172.43273 185.38264 168.19594 189.61943 C 163.95915 193.85623 159.04145 197.17019 153.44283 199.56095 C 147.84421 201.98197 141.85212 203.19225 135.46667 203.19225 C 129.08122 203.19225 123.08912 201.98197 117.4905 199.56095 C 111.89189 197.17019 106.97419 193.85623 102.7374 189.61943 C 98.500608 185.38264 95.171952 180.46495 92.750928 174.86633 C 90.360168 169.26771 89.164584 163.27562 89.164584 156.89017 C 89.164584 150.50472 90.360168 144.51262 92.750928 138.914 C 95.171952 133.31539 98.500608 128.39769 102.7374 124.1609 C 106.97419 119.89384 111.89189 116.56519 117.4905 114.17443 C 123.08912 111.78367 129.08122 110.58808 135.46667 110.58808 z M 135.46667 118.30492 C 130.14042 118.30492 125.14717 119.30378 120.4867 121.30112 C 115.82623 123.29847 111.72536 126.06736 108.18461 129.60811 C 104.64386 133.11859 101.87497 137.21947 99.877625 141.9102 C 97.880281 146.57067 96.881426 151.56391 96.881426 156.89017 C 96.881426 162.21642 97.880281 167.20966 99.877625 171.87013 C 101.87497 176.5306 104.64386 180.63148 108.18461 184.17222 C 111.72536 187.71297 115.82623 190.48186 120.4867 192.47921 C 125.14717 194.47655 130.14042 195.47541 135.46667 195.47541 C 140.79292 195.47541 145.78616 194.47655 150.44663 192.47921 C 155.1071 190.48186 159.20798 187.71297 162.74872 184.17222 C 166.28947 180.63148 169.05837 176.5306 171.05571 171.87013 C 173.05305 167.20966 174.05191 162.21642 174.05191 156.89017 C 174.05191 151.56391 173.05305 146.57067 171.05571 141.9102 C 169.05837 137.21947 166.28947 133.11859 162.74872 129.60811 C 159.20798 126.06736 155.1071 123.29847 150.44663 121.30112 C 145.78616 119.30378 140.79292 118.30492 135.46667 118.30492 z M 156.24731 133.45129 C 156.97078 133.43533 157.57938 133.68268 158.07304 134.19336 C 158.98092 135.10124 159.05647 136.32674 158.2999 137.87014 L 145.63504 163.88095 C 144.90873 165.30331 143.86476 166.34728 142.50293 167.01306 L 116.44664 179.76887 C 115.4177 180.25308 114.52482 180.35905 113.76825 180.08668 C 113.01168 179.81432 112.49704 179.29968 112.22468 178.54311 C 111.95231 177.75628 112.05828 176.86391 112.54249 175.86524 L 125.25282 149.80894 C 126.00939 148.32607 127.05337 147.26688 128.38493 146.63136 L 154.35079 133.96598 C 155.0525 133.63498 155.68461 133.4637 156.24731 133.45129 z M 135.46667 151.352 C 133.92327 151.352 132.60702 151.89707 131.51755 152.98653 C 130.42809 154.04573 129.88303 155.34676 129.88303 156.89017 C 129.88303 158.43357 130.42809 159.74982 131.51755 160.83928 C 132.60702 161.92874 133.92327 162.4738 135.46667 162.4738 C 136.97981 162.4738 138.28136 161.92874 139.37082 160.83928 C 140.46028 159.74982 141.00483 158.43357 141.00483 156.89017 C 141.00483 155.34676 140.46028 154.04573 139.37082 152.98653 C 138.28136 151.89707 136.97981 151.352 135.46667 151.352 z " />
  </g>
</svg>
