<?xml version="1.0" encoding="UTF-8" standalone="no"?>
<!-- Created with Inkscape (http://www.inkscape.org/) -->

<svg
   width="1024"
   height="1024"
   viewBox="0 0 270.93334 270.93334"
   version="1.1"
   id="svg1"
   xml:space="preserve"
   inkscape:version="1.4.2 (ebf0e940, 2025-05-08)"
   sodipodi:docname="icon-file.svg"
   inkscape:export-filename="../Assets.xcassets(iOS)/icon-1024.png"
   inkscape:export-xdpi="192.00002"
   inkscape:export-ydpi="192.00002"
   xmlns:inkscape="http://www.inkscape.org/namespaces/inkscape"
   xmlns:sodipodi="http://sodipodi.sourceforge.net/DTD/sodipodi-0.dtd"
   xmlns:xlink="http://www.w3.org/1999/xlink"
   xmlns="http://www.w3.org/2000/svg"
   xmlns:svg="http://www.w3.org/2000/svg"><sodipodi:namedview
     id="namedview1"
     pagecolor="#ffffff"
     bordercolor="#000000"
     borderopacity="1"
     inkscape:showpageshadow="false"
     inkscape:pageopacity="0.0"
     inkscape:pagecheckerboard="0"
     inkscape:deskcolor="#d1d1d1"
     inkscape:document-units="px"
     showborder="true"
     borderlayer="false"
     inkscape:zoom="0.55880245"
     inkscape:cx="8.9477059"
     inkscape:cy="430.38465"
     inkscape:window-width="3440"
     inkscape:window-height="1384"
     inkscape:window-x="0"
     inkscape:window-y="0"
     inkscape:window-maximized="1"
     inkscape:current-layer="svg1"
     showguides="true" /><defs
     id="defs1"><linearGradient
       id="linearGradient1"
       inkscape:collect="always"><stop
         style="stop-color:#b88e69;stop-opacity:1;"
         offset="0.49509269"
         id="stop1" /><stop
         style="stop-color:#f0dcaa;stop-opacity:1;"
         offset="1"
         id="stop2" /></linearGradient><linearGradient
       id="swatch162"
       inkscape:swatch="solid"><stop
         style="stop-color:#000000;stop-opacity:1;"
         offset="0"
         id="stop162" /></linearGradient><filter
       style="color-interpolation-filters:sRGB"
       inkscape:label="Drop Shadow"
       id="filter158"
       x="-0.038269156"
       y="-0.065368976"
       width="1.0765383"
       height="1.157975"><feFlood
         result="flood"
         in="SourceGraphic"
         flood-opacity="0.50000000000000011"
         flood-color="rgb(0,0,0)"
         id="feFlood157" /><feGaussianBlur
         result="blur"
         in="SourceGraphic"
         stdDeviation="0.5"
         id="feGaussianBlur157" /><feOffset
         result="offset"
         in="blur"
         dx="0.000000"
         dy="0.5"
         id="feOffset157" /><feComposite
         result="comp1"
         operator="in"
         in="flood"
         in2="offset"
         id="feComposite157" /><feComposite
         result="comp2"
         operator="over"
         in="SourceGraphic"
         id="feComposite158" /></filter><filter
       style="color-interpolation-filters:sRGB"
       inkscape:label="Drop Shadow (Mac App Box)"
       id="filter5"
       x="-0.027520832"
       y="-0.027520832"
       width="1.0550417"
       height="1.061922"><feFlood
         result="flood"
         in="SourceGraphic"
         flood-opacity="0.75"
         flood-color="rgb(0,0,0)"
         id="feFlood4" /><feGaussianBlur
         result="blur"
         in="SourceGraphic"
         stdDeviation="1.25"
         id="feGaussianBlur4" /><feOffset
         result="offset"
         in="blur"
         dx="0.000000"
         dy="0.75"
         id="feOffset4" /><feComposite
         result="comp1"
         operator="in"
         in="flood"
         in2="offset"
         id="feComposite4" /><feComposite
         result="comp2"
         operator="over"
         in="SourceGraphic"
         in2="comp1"
         id="feComposite5" /></filter><filter
       style="color-interpolation-filters:sRGB"
       inkscape:label="Drop Shadow"
       id="filter52"
       x="-0.010385127"
       y="-0.0088443039"
       width="1.0207703"
       height="1.0161637"><feFlood
         result="flood"
         in="SourceGraphic"
         flood-opacity="0.745098"
         flood-color="rgb(0,0,0)"
         id="feFlood51" /><feGaussianBlur
         result="blur"
         in="SourceGraphic"
         stdDeviation="10.000000"
         id="feGaussianBlur51" /><feOffset
         result="offset"
         in="blur"
         dx="0.000000"
         dy="-5.000000"
         id="feOffset51" /><feComposite
         result="comp1"
         operator="in"
         in="flood"
         in2="offset"
         id="feComposite51" /><feComposite
         result="comp2"
         operator="over"
         in="SourceGraphic"
         in2="comp1"
         id="feComposite52" /></filter><filter
       inkscape:menu-tooltip="In and out glow with a possible offset and colorizable flood"
       inkscape:menu="Shadows and Glows"
       inkscape:label="Cutout Glow"
       style="color-interpolation-filters:sRGB"
       id="filter57"
       x="-0.051908873"
       y="-0.051908907"
       width="1.1146321"
       height="1.1146322"><feOffset
         dy="1"
         dx="1"
         id="feOffset57" /><feGaussianBlur
         stdDeviation="2"
         result="blur"
         id="feGaussianBlur57" /><feFlood
         flood-color="rgb(0,0,0)"
         flood-opacity="0.80000000000000004"
         result="flood"
         id="feFlood57" /><feComposite
         in="flood"
         in2="SourceGraphic"
         operator="in"
         result="composite"
         id="feComposite57" /><feBlend
         in="blur"
         in2="composite"
         mode="normal"
         id="feBlend57" /></filter><filter
       style="color-interpolation-filters:sRGB"
       inkscape:label="Drop Shadow"
       id="filter66"
       x="-0.11480747"
       y="-0.19610693"
       width="1.2296149"
       height="1.4739251"><feFlood
         result="flood"
         in="SourceGraphic"
         flood-opacity="0.745098"
         flood-color="rgb(0,0,0)"
         id="feFlood65" /><feGaussianBlur
         result="blur"
         in="SourceGraphic"
         stdDeviation="1.500000"
         id="feGaussianBlur65" /><feOffset
         result="offset"
         in="blur"
         dx="0.000000"
         dy="1.500000"
         id="feOffset65" /><feComposite
         result="comp1"
         operator="in"
         in="flood"
         in2="offset"
         id="feComposite65" /><feComposite
         result="comp2"
         operator="over"
         in="SourceGraphic"
         in2="comp1"
         id="feComposite66" /></filter><filter
       style="color-interpolation-filters:sRGB"
       inkscape:label="Drop Shadow"
       id="filter68"
       x="-0.03677186"
       y="-0.028719462"
       width="1.0735437"
       height="1.0753886"><feFlood
         result="flood"
         in="SourceGraphic"
         flood-opacity="0.745098"
         flood-color="rgb(0,0,0)"
         id="feFlood66" /><feGaussianBlur
         result="blur"
         in="SourceGraphic"
         stdDeviation="1"
         id="feGaussianBlur66" /><feOffset
         result="offset"
         in="blur"
         dx="0.000000"
         dy="1.500000"
         id="feOffset66" /><feComposite
         result="comp1"
         operator="in"
         in="flood"
         in2="offset"
         id="feComposite67" /><feComposite
         result="comp2"
         operator="over"
         in="SourceGraphic"
         in2="comp1"
         id="feComposite68" /></filter><linearGradient
       inkscape:collect="always"
       xlink:href="#linearGradient1"
       id="linearGradient3"
       gradientUnits="userSpaceOnUse"
       x1="54.325882"
       y1="258.19452"
       x2="216.24152"
       y2="22.920071" /><linearGradient
       inkscape:collect="always"
       xlink:href="#linearGradient1"
       id="linearGradient4"
       gradientUnits="userSpaceOnUse"
       x1="54.325882"
       y1="258.19452"
       x2="216.24152"
       y2="22.920071" /></defs><g
     id="g4"
     transform="translate(2.3383774e-5,2.9753199)"><path
       d="m 62.042461,21.854876 c -0.931987,0.649567 -2.259364,2.852447 -2.62651,4.349275 l -0.310663,1.383861 -2.400574,0.112968 c -2.570027,0.14121 -3.586741,0.593083 -4.26455,1.948702 -0.536599,1.016713 -0.480115,7.399417 0.05648,8.41613 0.875504,1.694523 1.073198,1.722765 15.165981,1.722765 11.607483,0 12.878375,-0.05648 13.782121,-0.508356 1.553312,-0.762536 1.976943,-1.92046 1.976943,-5.5072 0,-5.027085 -0.677809,-5.874347 -4.82939,-6.072041 -2.485301,-0.112968 -2.513543,-0.14121 -2.513543,-0.875503 -0.02824,-1.073198 -0.931988,-2.908932 -2.118154,-4.236308 l -1.044955,-1.157924 h -5.140054 c -4.066855,0 -5.253021,0.08473 -5.733136,0.423631 z m 6.778092,3.276078 c 1.129682,0.593083 1.892218,1.468586 2.06167,2.428816 0.367147,2.005185 -1.157924,3.756192 -3.276078,3.756192 -1.609797,0 -3.106625,-1.412102 -3.106625,-2.937173 0,-2.541784 2.315848,-4.264549 4.321033,-3.247835 z"
       id="path1-0"
       style="display:inline;fill:url(#linearGradient3);fill-opacity:1;stroke:none;stroke-width:0.028242"
       transform="matrix(2.2992229,0,0,2.2992229,-20.267382,-23.242683)" /><path
       id="path2-4"
       style="display:inline;fill:url(#linearGradient4);fill-opacity:1;stroke:none;stroke-width:0.028242"
       d="m 47.836781,30.468444 -0.903822,0.02842 c -0.508357,0.02824 -1.722813,0.141459 -2.683043,0.282669 -4.490475,0.564841 -7.62517,3.247821 -8.726604,7.455881 -0.564841,2.089906 -0.564841,65.973176 0,68.063086 0.790777,3.02189 2.824126,5.53537 5.337663,6.6368 2.485294,1.10144 4.038426,1.15805 28.015882,1.07333 l 23.158808,-0.0848 1.750798,-0.64957 c 2.00518,-0.76253 4.010374,-2.4005 5.027088,-4.12326 1.581549,-2.68299 1.553399,-2.06169 1.553399,-36.799337 0,-22.621837 -0.0846,-32.42176 -0.31058,-33.466716 -1.016713,-4.829379 -4.151747,-7.540794 -9.348273,-8.133877 -1.270892,-0.169452 -2.513591,-0.282669 -2.683043,-0.282669 -0.28242,0 -0.366904,0.847321 -0.366904,3.332616 0,2.231116 -0.141507,3.841215 -0.452169,4.829681 -0.593077,2.06167 -2.485343,4.066632 -4.547012,4.829167 -1.525066,0.564841 -2.004971,0.593222 -15.448165,0.508496 l -13.866863,-0.08475 -1.553395,-0.875399 c -1.666275,-0.96023 -3.163256,-2.824428 -3.671613,-4.575435 -0.141205,-0.564841 -0.282152,-2.598136 -0.282152,-4.51859 z m 18.837105,27.681533 c 1.720495,-0.03324 3.914453,0.10817 5.211057,0.374139 4.107755,0.842237 7.358596,2.600534 10.402473,5.629635 3.117759,3.117758 4.920432,6.427995 5.851326,10.786946 0.413732,1.965221 0.369387,6.220349 -0.0739,8.25945 -1.84701,8.274616 -8.230329,14.51009 -16.504947,16.13546 -1.388953,0.280746 -6.294823,0.280746 -7.683773,0 -2.866565,-0.561492 -6.205526,-2.053395 -8.510597,-3.782201 -1.551494,-1.167309 -3.812604,-3.502028 -4.787827,-4.950088 -1.595817,-2.378953 -2.718718,-5.098007 -3.265436,-7.905467 -0.38418,-1.979997 -0.354302,-6.014029 0.05943,-7.93492 1.935668,-8.865663 8.968808,-15.41121 17.790142,-16.519419 0.417421,-0.05172 0.938557,-0.08245 1.512051,-0.09354 z m 0.203606,3.566194 c -0.467988,0.0088 -0.891675,0.03275 -1.227832,0.07338 -6.87089,0.886566 -12.707649,5.954743 -14.480781,12.574434 -1.610593,6.013874 0.02953,12.175682 4.432808,16.623288 3.501938,3.546264 7.964294,5.260615 13.047276,5.038972 6.16163,-0.26597 11.747103,-3.960326 14.510234,-9.619576 2.984773,-6.087749 2.11309,-13.298277 -2.245858,-18.558568 -2.408505,-2.896118 -6.028616,-5.053723 -9.811294,-5.836858 -1.019552,-0.210559 -2.82059,-0.321392 -4.224553,-0.295072 z m 10.407125,6.705538 c 0.340328,0.004 0.504244,0.166651 0.7028,0.415997 0.221641,0.295522 0.295477,0.547015 0.251148,0.857313 -0.132986,0.797909 -5.984253,12.662919 -6.501419,13.180082 -0.561491,0.561494 -12.707165,6.54586 -13.283436,6.54586 -0.206864,0 -0.546786,-0.132746 -0.768427,-0.310061 -0.768358,-0.60582 -0.665162,-0.901308 2.600359,-7.594888 1.640149,-3.383731 3.147455,-6.338898 3.35432,-6.575315 0.280745,-0.310298 2.187019,-1.315345 6.590299,-3.472659 4.703422,-2.295839 6.305636,-3.055216 7.054356,-3.046329 z m -9.462996,8.025874 c -0.221641,-0.0074 -0.450549,0.05925 -0.82734,0.192235 -1.59582,0.561495 -2.157484,2.201431 -1.211813,3.619936 0.975224,1.492389 3.250844,1.315009 4.078308,-0.295587 0.650149,-1.285524 0.147474,-2.615287 -1.256255,-3.265436 -0.347238,-0.162539 -0.561257,-0.24376 -0.7829,-0.251148 z"
       transform="matrix(2.2992229,0,0,2.2992229,-20.267382,-23.242683)" /></g></svg>
