<?xml version="1.0" encoding="UTF-8" standalone="no"?>
<svg
   version="1.1"
   viewBox="0 0 15.9375 15.9453"
   id="svg2"
   sodipodi:docname="toolbar-icon.svg"
   inkscape:version="1.3.2 (091e20e, 2023-11-25)"
   xmlns:inkscape="http://www.inkscape.org/namespaces/inkscape"
   xmlns:sodipodi="http://sodipodi.sourceforge.net/DTD/sodipodi-0.dtd"
   xmlns="http://www.w3.org/2000/svg"
   xmlns:svg="http://www.w3.org/2000/svg">
  <defs
     id="defs2" />
  <sodipodi:namedview
     id="namedview2"
     pagecolor="#ffffff"
     bordercolor="#000000"
     borderopacity="0.25"
     inkscape:showpageshadow="2"
     inkscape:pageopacity="0.0"
     inkscape:pagecheckerboard="0"
     inkscape:deskcolor="#d1d1d1"
     inkscape:zoom="56.01153"
     inkscape:cx="16.398409"
     inkscape:cy="9.2748761"
     inkscape:window-width="3440"
     inkscape:window-height="1384"
     inkscape:window-x="0"
     inkscape:window-y="0"
     inkscape:window-maximized="1"
     inkscape:current-layer="svg2" />
  <g
     transform="matrix(0.00490046,0,0,-0.00490046,-3.1889147,37.706191)"
     fill="#000000"
     stroke="none"
     id="g2">
    <path
       d="m 2073,7685 c -33,-23 -80,-101 -93,-154 l -11,-49 -85,-4 c -91,-5 -127,-21 -151,-69 -19,-36 -17,-262 2,-298 31,-60 38,-61 537,-61 411,0 456,2 488,18 55,27 70,68 70,195 0,178 -24,208 -171,215 -88,4 -89,5 -89,31 -1,38 -33,103 -75,150 l -37,41 h -182 c -144,0 -186,-3 -203,-15 z m 240,-116 c 40,-21 67,-52 73,-86 13,-71 -41,-133 -116,-133 -57,0 -110,50 -110,104 0,90 82,151 153,115 z"
       id="path1-5" />
    <path
       d="m 1387,7359 c -106,-25 -198,-105 -239,-208 l -23,-56 V 5900 4705 l 23,-56 c 32,-81 90,-142 170,-181 l 67,-33 h 880 c 839,0 882,1 930,19 101,38 167,105 208,213 l 22,58 3,1135 c 2,797 0,1154 -8,1199 -24,137 -100,240 -208,282 -37,14 -88,24 -144,27 l -88,4 v -110 -110 l 48,-7 c 67,-10 120,-43 146,-90 l 21,-40 3,-1100 c 3,-1222 6,-1153 -63,-1214 -19,-17 -52,-34 -72,-38 -21,-4 -384,-8 -808,-8 h -770 l -45,25 c -33,18 -52,38 -70,75 l -25,50 -3,1064 c -1,689 1,1083 8,1119 17,95 68,141 171,156 l 45,7 v 109 l -1,110 -70,-1 c -38,-1 -87,-5 -108,-10 z"
       id="path2-8" />
  </g>
</svg>
