<?xml version="1.0" encoding="UTF-8" standalone="no"?>
<svg
   version="1.1"
   viewBox="0 0 15.9375 15.9453"
   id="svg2"
   sodipodi:docname="icon-minus.svg"
   inkscape:version="1.3.2 (091e20e, 2023-11-25)"
   xmlns:inkscape="http://www.inkscape.org/namespaces/inkscape"
   xmlns:sodipodi="http://sodipodi.sourceforge.net/DTD/sodipodi-0.dtd"
   xmlns="http://www.w3.org/2000/svg"
   xmlns:svg="http://www.w3.org/2000/svg">
  <defs
     id="defs2" />
  <sodipodi:namedview
     id="namedview2"
     pagecolor="#ffffff"
     bordercolor="#000000"
     borderopacity="0.25"
     inkscape:showpageshadow="2"
     inkscape:pageopacity="0.0"
     inkscape:pagecheckerboard="0"
     inkscape:deskcolor="#d1d1d1"
     inkscape:zoom="38.649647"
     inkscape:cx="3.1177517"
     inkscape:cy="8.9910266"
     inkscape:window-width="2640"
     inkscape:window-height="1032"
     inkscape:window-x="0"
     inkscape:window-y="0"
     inkscape:window-maximized="0"
     inkscape:current-layer="svg2" />
  <path
     d="M 6.96704,0.02315204 C 3.56521,0.41699204 0.72844996,3.105352 0.06633996,6.552842 c -0.13127,0.69064 -0.13127,2.14042 0.006,2.88243 0.28539,1.60388 1.04452004,3.02512 2.25457004,4.22946 1.15297,1.15867 2.42581,1.85502 4.00115,2.19749 0.69064,0.15411 2.55708,0.15411 3.25343,0.006 2.72832,-0.5822 5.02284,-2.59704 5.93038,-5.19408 1.14155,-3.25913 0.097,-6.86074 -2.60275,-8.98403 C 11.21391,0.36020204 9.12487,-0.22769796 6.96733,0.02344204 Z M 11.58463,7.454672 c 0.47945,0.31964 0.31393,1.05023 -0.26256,1.18151 -0.28539,0.0685 -6.35846,0.0685 -6.70092,0.006 -0.3653,-0.0742 -0.54795,-0.27968 -0.54795,-0.62786 0,-0.19977 0.0342,-0.31393 0.11416,-0.40525 0.25114,-0.28539 0.2226,-0.28539 3.85274,-0.26827 3.13928,0.0114 3.40754,0.0171 3.54453,0.11416 z"
     id="path2"
     style="fill:#ff3c2f;stroke:none;stroke-width:0.00570776;fill-opacity:1" />
</svg>
