<?xml version="1.0" encoding="UTF-8" standalone="no"?>
<svg
   version="1.1"
   viewBox="0 0 15.9375 15.9453"
   id="svg2"
   sodipodi:docname="icon-copy-off.svg"
   inkscape:version="1.3.2 (091e20e, 2023-11-25)"
   xmlns:inkscape="http://www.inkscape.org/namespaces/inkscape"
   xmlns:sodipodi="http://sodipodi.sourceforge.net/DTD/sodipodi-0.dtd"
   xmlns="http://www.w3.org/2000/svg"
   xmlns:svg="http://www.w3.org/2000/svg">
  <defs
     id="defs2" />
  <sodipodi:namedview
     id="namedview2"
     pagecolor="#ffffff"
     bordercolor="#000000"
     borderopacity="0.25"
     inkscape:showpageshadow="2"
     inkscape:pageopacity="0.0"
     inkscape:pagecheckerboard="0"
     inkscape:deskcolor="#d1d1d1"
     inkscape:zoom="35.41675"
     inkscape:cx="4.6023421"
     inkscape:cy="11.901149"
     inkscape:window-width="2304"
     inkscape:window-height="1184"
     inkscape:window-x="0"
     inkscape:window-y="0"
     inkscape:window-maximized="0"
     inkscape:current-layer="svg2" />
  <g
     transform="matrix(0.0047619,0,0,-0.0047619,-4.0636386,36.639288)"
     fill="#000000"
     stroke="none"
     id="g2">
    <path
       d="m 1927,7670 c -56,-42 -94,-96 -118,-170 -19,-54 -23,-95 -27,-251 l -4,-187 -182,-5 c -155,-4 -190,-7 -244,-27 -85,-30 -159,-99 -198,-182 l -29,-63 V 5670 4555 l 23,-58 c 14,-34 43,-77 72,-107 l 49,-50 h 920 921 l 40,36 c 50,46 96,140 110,224 5,36 10,133 10,217 v 151 l 193,4 c 186,3 194,4 252,31 113,53 182,148 205,285 7,46 10,268 8,717 -4,717 -3,701 -69,810 -37,61 -736,782 -822,848 l -49,37 h -512 l -511,-1 z m 893,-520 c 0,-432 3,-456 65,-516 62,-60 91,-64 480,-64 h 335 v -604 c 0,-627 -1,-639 -43,-700 -37,-52 -85,-66 -244,-66 h -141 l -4,373 c -4,357 -5,374 -26,429 -13,31 -36,73 -53,95 -16,21 -218,229 -448,463 -295,300 -432,433 -467,452 -51,27 -145,48 -223,48 h -43 l 4,163 c 4,173 10,198 61,245 51,48 80,51 425,52 h 322 z m 739,-292 74,-78 h -283 c -250,0 -286,2 -302,17 -17,15 -18,38 -18,310 v 294 l 228,-233 c 125,-128 261,-268 301,-310 z M 2002,6393 c 4,-461 5,-470 51,-537 11,-16 45,-40 76,-55 l 56,-26 423,-3 422,-3 v -560 c 0,-530 -1,-562 -19,-597 -23,-46 -46,-67 -94,-87 -31,-13 -129,-15 -732,-15 -562,0 -702,3 -728,14 -44,18 -94,78 -104,123 -10,49 -11,1996 0,2044 10,48 63,107 112,124 30,11 101,14 287,15 h 247 z m 615,-401 c -324,-2 -362,-1 -379,14 -17,16 -18,40 -18,388 l 1,371 378,-385 379,-385 z"
       id="path1-3" />
  </g>
</svg>
