<?xml version="1.0" encoding="UTF-8" standalone="no"?>
<svg
   version="1.1"
   viewBox="0 0 32 32"
   id="svg2"
   width="32"
   height="32"
   sodipodi:docname="icon-copy.svg"
   inkscape:version="1.4.2 (ebf0e940, 2025-05-08)"
   xmlns:inkscape="http://www.inkscape.org/namespaces/inkscape"
   xmlns:sodipodi="http://sodipodi.sourceforge.net/DTD/sodipodi-0.dtd"
   xmlns="http://www.w3.org/2000/svg"
   xmlns:svg="http://www.w3.org/2000/svg">
  <sodipodi:namedview
     id="namedview1"
     pagecolor="#ffffff"
     bordercolor="#000000"
     borderopacity="0.25"
     inkscape:showpageshadow="2"
     inkscape:pageopacity="0.0"
     inkscape:pagecheckerboard="0"
     inkscape:deskcolor="#d1d1d1"
     inkscape:zoom="20.553122"
     inkscape:cx="22.18641"
     inkscape:cy="18.853583"
     inkscape:window-width="3440"
     inkscape:window-height="1384"
     inkscape:window-x="0"
     inkscape:window-y="0"
     inkscape:window-maximized="1"
     inkscape:current-layer="svg2" />
  <defs
     id="defs2" />
  <path
     d="m 6.9379965,32 q -1.971383,0 -2.963436,-1.00477 -0.97933,-0.99205 -0.97933,-2.988871 V 10.340222 q 0,-1.9841001 0.97933,-2.9888701 0.992053,-1.004771 2.963436,-1.004771 h 4.6168505 v 9.2082681 q 0,1.220986 0.585056,1.818759 0.585057,0.585057 1.81876,0.585057 h 8.877584 v 10.047694 q 0,1.984103 -0.99205,2.988871 Q 20.864864,32 18.893481,32 Z M 13.945945,16.216215 q -0.661368,0 -0.661368,-0.648648 V 6.6645479 q 0.36884,0.101738 0.73768,0.381557 0.381557,0.279809 0.801272,0.712242 l 6.791732,6.9189191 q 0.432433,0.432432 0.661367,0.801272 0.228935,0.368838 0.330684,0.737677 z m 10.620032,9.437204 v -7.351352 q 0,-1.297299 -0.317967,-2.429254 -0.305246,-1.144674 -1.373607,-2.213036 L 15.650237,6.4483299 Q 14.581874,5.3799689 13.462638,4.9984109 12.3434,4.6168519 11.007949,4.6168519 H 9.1637495 v -0.72496 q 0,-1.90779 1.0047715,-2.8998411 Q 11.173291,9.9999996e-8 13.106518,9.9999996e-8 h 6.779015 V 7.5166939 q 0,0.99205 0.534181,1.538949 0.5469,0.534182 1.551668,0.534182 H 29.00477 V 21.659778 q 0,0.99205 -0.254373,1.742447 -0.241654,0.750397 -0.73768,1.246423 -0.496024,0.496027 -1.233703,0.750398 -0.73768,0.254373 -1.717012,0.254373 z M 22.213034,7.9999999 q -0.712241,0 -0.712241,-0.73768 l -0.01281,-6.7408573 q 0.292529,0.038156 0.572337,0.2416535 0.292529,0.2034977 0.623213,0.5468998 l 5.379967,5.481716 q 0.343402,0.343404 0.534181,0.623213 0.203498,0.279808 0.254374,0.585055 z"
     id="text1"
     style="font-size:12px;font-family:'SF Pro';-inkscape-font-specification:'SF Pro';text-align:center;text-anchor:middle;fill:#4692fe;fill-opacity:1;stroke-width:2.17064;stroke-linecap:round;stroke-opacity:0.501437"
     aria-label="􀉂" />
</svg>
