<?xml version="1.0" encoding="UTF-8" standalone="no"?>
<svg
   version="1.1"
   viewBox="0 0 32 32"
   id="svg2"
   width="32"
   height="32"
   xmlns="http://www.w3.org/2000/svg"
   xmlns:svg="http://www.w3.org/2000/svg">
  <defs
     id="defs2" />
  <path
     d="m 11.825195,23.371094 q -0.908203,0 -1.365235,-0.462891 -0.451171,-0.457031 -0.451171,-1.376953 v -8.138672 q 0,-0.914062 0.451171,-1.376953 0.457032,-0.462891 1.365235,-0.462891 h 2.126953 v 4.242188 q 0,0.5625 0.269531,0.83789 0.269532,0.269532 0.837891,0.269532 h 4.089844 v 4.628906 q 0,0.914063 -0.457031,1.376953 -0.451172,0.462891 -1.359375,0.462891 z m 3.228516,-7.271485 q -0.304688,0 -0.304688,-0.298828 v -4.101562 q 0.169922,0.04687 0.339844,0.175781 0.175781,0.128906 0.369141,0.328125 l 3.128906,3.1875 q 0.199219,0.199219 0.304687,0.369141 0.105469,0.169921 0.152344,0.339843 z m 4.892578,4.347657 v -3.386719 q 0,-0.597657 -0.146485,-1.119141 -0.140625,-0.527344 -0.632812,-1.019531 l -3.328125,-3.322266 q -0.492188,-0.492187 -1.007813,-0.667968 -0.515625,-0.175782 -1.130859,-0.175782 h -0.84961 v -0.333984 q 0,-0.8789063 0.462891,-1.3359376 0.462891,-0.4570312 1.353516,-0.4570312 h 3.123047 v 3.4628908 q 0,0.457031 0.246094,0.708984 0.251953,0.246094 0.714843,0.246094 h 3.240235 v 5.560547 q 0,0.457031 -0.117188,0.802734 -0.111328,0.345703 -0.339844,0.574219 -0.228515,0.228516 -0.568359,0.345703 -0.339844,0.117188 -0.791016,0.117188 z m -1.083985,-8.132813 q -0.328125,0 -0.328125,-0.339844 l -0.0059,-3.1054685 q 0.134766,0.017578 0.263672,0.1113282 0.134766,0.09375 0.28711,0.2519531 l 2.478515,2.5253902 q 0.158203,0.158204 0.246094,0.28711 0.09375,0.128906 0.117188,0.269531 z"
     id="text1"
     style="font-size:12px;font-family:'SF Pro';-inkscape-font-specification:'SF Pro';text-align:center;text-anchor:middle;fill:#4692fe;fill-opacity:1;stroke-linecap:round;stroke-opacity:0.501437"
     aria-label="􀉂" />
</svg>
