<?xml version="1.0" encoding="UTF-8" standalone="no"?>
<svg
   version="1.1"
   viewBox="0 0 15.9375 15.9453"
   id="svg2"
   sodipodi:docname="icon-pin-off.svg"
   inkscape:version="1.4.2 (ebf0e940, 2025-05-08)"
   xmlns:inkscape="http://www.inkscape.org/namespaces/inkscape"
   xmlns:sodipodi="http://sodipodi.sourceforge.net/DTD/sodipodi-0.dtd"
   xmlns="http://www.w3.org/2000/svg"
   xmlns:svg="http://www.w3.org/2000/svg">
  <defs
     id="defs2" />
  <sodipodi:namedview
     id="namedview2"
     pagecolor="#ffffff"
     bordercolor="#000000"
     borderopacity="0.25"
     inkscape:showpageshadow="2"
     inkscape:pageopacity="0.0"
     inkscape:pagecheckerboard="0"
     inkscape:deskcolor="#d1d1d1"
     inkscape:zoom="53.913806"
     inkscape:cx="3.8023655"
     inkscape:cy="7.3357833"
     inkscape:window-width="3440"
     inkscape:window-height="1384"
     inkscape:window-x="0"
     inkscape:window-y="0"
     inkscape:window-maximized="0"
     inkscape:current-layer="svg2" />
  <path
     d="m 7.9719675,15.472654 q -0.06435,0 -0.1608752,-0.14157 -0.09009,-0.141571 -0.1866153,-0.392536 -0.096525,-0.24453 -0.1608753,-0.572716 -0.06435,-0.328185 -0.06435,-0.694981 v -3.53282 h 1.1389968 v 3.53282 q 0,0.366796 -0.06435,0.694981 -0.06435,0.328186 -0.1608753,0.572716 -0.096525,0.250965 -0.1930503,0.392536 -0.09009,0.14157 -0.1480052,0.14157 z M 3.9179114,10.665702 q -0.4311456,0 -0.688546,-0.244531 Q 2.971965,10.170206 2.971965,9.7583652 q 0,-0.707851 0.3732306,-1.3835271 Q 3.7184261,7.6927271 4.3876671,7.1521863 5.0633431,6.6052105 5.9771145,6.28346 6.8908859,5.9552745 7.9719675,5.9552745 q 1.0810816,0 1.988418,0.3281855 0.9137715,0.3217505 1.5894475,0.8687263 0.675676,0.5405408 1.042471,1.2226518 0.373231,0.6756761 0.373231,1.3835271 0,0.4118408 -0.2574,0.6628058 -0.250966,0.244531 -0.688546,0.244531 z M 4.1753118,9.6940151 h 7.5868762 q 0.225226,0 0.186615,-0.2574004 Q 11.897323,9.0054691 11.601313,8.5614534 11.305303,8.1110028 10.790502,7.7377722 10.275701,7.3581066 9.5614149,7.1264463 8.8535638,6.8947859 7.9719675,6.8947859 q -0.8880313,0 -1.6023174,0.2316604 Q 5.661799,7.3581066 5.1469983,7.7377722 4.6321975,8.1110028 4.3361871,8.5614534 4.0401766,9.0054691 3.9886965,9.4366147 3.9500865,9.6940151 4.1753118,9.6940151 Z M 3.7892112,1.1547573 q 0,-0.29601042 0.2059203,-0.48906071 Q 4.2010518,0.4726463 4.5421074,0.4726463 h 6.8597206 q 0.33462,0 0.54054,0.19305029 0.212356,0.19305029 0.212356,0.48906071 0,0.3088805 -0.250966,0.624196 Q 11.742883,1.9977436 11.446873,2.261579 11.150862,2.5254144 10.771197,2.8085548 10.391531,3.0852602 9.9861255,3.3555306 L 10.224221,6.7532157 H 9.1946193 L 8.962959,2.8793399 Q 8.950089,2.7635097 9.0273091,2.7248997 9.3876696,2.5382844 9.7029851,2.3452341 10.018301,2.1521838 10.256396,1.9848736 q 0.238095,-0.1737453 0.37323,-0.2960105 0.141571,-0.1287002 0.160876,-0.1737452 0.03861,-0.06435 0.0064,-0.096525 -0.02574,-0.03861 -0.07722,-0.03861 H 5.2177834 q -0.05148,0 -0.083655,0.03861 -0.02574,0.032175 0.01287,0.096525 0.019305,0.045045 0.1608752,0.1737452 0.1415702,0.1222652 0.3796656,0.2960105 0.2380953,0.1673102 0.5469758,0.3603605 0.3153155,0.1930503 0.675676,0.3796656 0.07722,0.03861 0.070785,0.1544402 L 6.7428807,6.7532157 H 5.7132791 L 5.9513745,3.3555306 Q 5.5459689,3.0852602 5.1663033,2.8085548 4.7930727,2.5254144 4.4906273,2.261579 4.1946168,1.9977436 4.0337416,1.7789533 3.7892112,1.4636378 3.7892112,1.1547573 Z"
     id="text1"
     style="font-size:13.1789px;font-family:'SF Pro';-inkscape-font-specification:'SF Pro';text-align:center;text-anchor:middle;stroke-width:1.09824;stroke-linecap:round;stroke-opacity:0.501437"
     aria-label="􀎦" />
</svg>
