<?xml version="1.0" encoding="UTF-8" standalone="no"?>
<svg
   version="1.1"
   viewBox="0 0 32 32"
   id="svg2"
   sodipodi:docname="icon-copy-on.svg"
   inkscape:version="1.4.2 (ebf0e940, 2025-05-08)"
   width="32"
   height="32"
   xmlns:inkscape="http://www.inkscape.org/namespaces/inkscape"
   xmlns:sodipodi="http://sodipodi.sourceforge.net/DTD/sodipodi-0.dtd"
   xmlns="http://www.w3.org/2000/svg"
   xmlns:svg="http://www.w3.org/2000/svg">
  <defs
     id="defs2" />
  <sodipodi:namedview
     id="namedview2"
     pagecolor="#ffffff"
     bordercolor="#000000"
     borderopacity="0.25"
     inkscape:showpageshadow="2"
     inkscape:pageopacity="0.0"
     inkscape:pagecheckerboard="0"
     inkscape:deskcolor="#d1d1d1"
     inkscape:zoom="23.12974"
     inkscape:cx="-7.7821885"
     inkscape:cy="17.920651"
     inkscape:window-width="3440"
     inkscape:window-height="1384"
     inkscape:window-x="0"
     inkscape:window-y="0"
     inkscape:window-maximized="0"
     inkscape:current-layer="svg2" />
  <path
     d="m 7.9569319,7.9525422 c -0.0208,0.0111 -0.0124,0.0437 0.0111,0.0435 0.0111,-2.2e-4 0.0173,-0.004 0.0215,-0.0129 0.004,-0.009 0.004,-0.014 -0.001,-0.0226 -0.007,-0.0113 -0.0197,-0.0144 -0.0315,-0.008 z"
     id="path4"
     style="fill:#000000;stroke:none;stroke-width:0.000221687" />
  <path
     d="m 14.27451,23.435294 c -0.261436,0 -0.501961,-0.05752 -0.721574,-0.172547 C 13.343785,23.147716 13.139864,22.96471 12.941175,22.71373 L 9.1137255,18.007843 C 8.8732014,17.68366 8.7529393,17.359478 8.7529393,17.035296 c 0,-0.345101 0.1150312,-0.63791 0.3450936,-0.878427 0.2405241,-0.250981 0.5281054,-0.376472 0.862744,-0.376472 0.2196051,0 0.4182981,0.04706 0.5960771,0.141181 0.188233,0.08366 0.376467,0.250978 0.564701,0.501957 l 3.09021,3.999994 6.509804,-10.4470584 c 0.292809,-0.4705869 0.658822,-0.7058804 1.098039,-0.7058804 0.324183,0 0.616992,0.1045758 0.878427,0.3137273 0.261436,0.2091515 0.392154,0.4862775 0.392154,0.8313775 0,0.177779 -0.04183,0.355557 -0.125488,0.533334 -0.0732,0.167322 -0.156863,0.324185 -0.250983,0.47059 l -7.168627,11.294118 c -0.313727,0.481043 -0.737254,0.721562 -1.270581,0.721557 z"
     id="text1"
     style="font-size:3.175px;font-family:'SF Pro';-inkscape-font-specification:'SF Pro';text-align:center;text-anchor:middle;fill:#4692fe;fill-opacity:1;stroke-width:2.67712;stroke-linecap:round;stroke-opacity:0.501437"
     aria-label="ô€¢"
     sodipodi:nodetypes="scccscsccccssscccs" />
</svg>
