<?xml version="1.0" encoding="UTF-8" standalone="no"?>
<svg
   version="1.1"
   viewBox="0 0 15.9375 15.9453"
   id="svg2"
   sodipodi:docname="icon-pin-on.svg"
   inkscape:version="1.4.2 (ebf0e940, 2025-05-08)"
   xmlns:inkscape="http://www.inkscape.org/namespaces/inkscape"
   xmlns:sodipodi="http://sodipodi.sourceforge.net/DTD/sodipodi-0.dtd"
   xmlns="http://www.w3.org/2000/svg"
   xmlns:svg="http://www.w3.org/2000/svg">
  <defs
     id="defs2" />
  <sodipodi:namedview
     id="namedview2"
     pagecolor="#ffffff"
     bordercolor="#000000"
     borderopacity="0.25"
     inkscape:showpageshadow="2"
     inkscape:pageopacity="0.0"
     inkscape:pagecheckerboard="0"
     inkscape:deskcolor="#d1d1d1"
     inkscape:zoom="40.581524"
     inkscape:cx="-5.3226193"
     inkscape:cy="9.1297706"
     inkscape:window-width="3440"
     inkscape:window-height="1384"
     inkscape:window-x="0"
     inkscape:window-y="0"
     inkscape:window-maximized="1"
     inkscape:current-layer="svg2" />
  <path
     d="m 2.9719675,9.7583644 q 0,-0.6821107 0.3474904,-1.3449163 Q 3.6669482,7.7442074 4.3168839,7.1907968 4.9668195,6.6373862 5.8677204,6.3092009 L 6.0800757,3.355533 Q 5.6103202,3.0916978 5.2049148,2.8149924 4.8059444,2.5318521 4.5034991,2.268017 4.2010538,2.0041817 4.0337436,1.7853914 3.7892133,1.4636411 3.7892133,1.1547608 q 0,-0.29601035 0.2059203,-0.48906055 0.2059202,-0.1930502 0.5469755,-0.1930502 h 6.8597169 q 0.33462,0 0.54054,0.1930502 0.212356,0.1930502 0.212356,0.48906055 0,0.3088803 -0.250966,0.6306306 Q 11.736446,2.0041817 11.434001,2.268017 11.131556,2.5318521 10.72615,2.8085575 10.32718,3.0852628 9.8574244,3.355533 L 10.06978,6.3092009 q 0.900901,0.3281853 1.550836,0.8815959 0.649936,0.5534106 0.997426,1.2226513 0.347491,0.6628056 0.347491,1.3449163 0,0.4118406 -0.257401,0.6628056 -0.250965,0.24453 -0.688545,0.24453 H 8.5382481 v 3.005148 q 0,0.366796 -0.06435,0.694981 -0.06435,0.328185 -0.1608748,0.572715 -0.096525,0.250966 -0.1930503,0.392536 -0.09009,0.14157 -0.1480051,0.14157 -0.06435,0 -0.1608752,-0.14157 -0.09009,-0.14157 -0.1866155,-0.392536 -0.096525,-0.24453 -0.1608752,-0.572715 -0.06435,-0.328185 -0.06435,-0.694981 V 10.6657 H 3.9179135 q -0.4311455,0 -0.6885457,-0.24453 Q 2.9719675,10.170205 2.9719675,9.7583644 Z"
     id="text1"
     style="font-size:12px;font-family:'SF Pro';-inkscape-font-specification:'SF Pro';text-align:center;text-anchor:middle;stroke-width:1.09824;stroke-linecap:round;stroke-opacity:0.501437"
     aria-label="􀎧" />
</svg>
