<?xml version="1.0" encoding="UTF-8" standalone="no"?>
<svg
   version="1.1"
   viewBox="0 0 15.9375 15.9453"
   id="svg2"
   sodipodi:docname="icon-pin-on.svg"
   inkscape:version="1.3.2 (091e20e, 2023-11-25)"
   xmlns:inkscape="http://www.inkscape.org/namespaces/inkscape"
   xmlns:sodipodi="http://sodipodi.sourceforge.net/DTD/sodipodi-0.dtd"
   xmlns="http://www.w3.org/2000/svg"
   xmlns:svg="http://www.w3.org/2000/svg">
  <defs
     id="defs2" />
  <sodipodi:namedview
     id="namedview2"
     pagecolor="#ffffff"
     bordercolor="#000000"
     borderopacity="0.25"
     inkscape:showpageshadow="2"
     inkscape:pageopacity="0.0"
     inkscape:pagecheckerboard="0"
     inkscape:deskcolor="#d1d1d1"
     inkscape:zoom="31.286981"
     inkscape:cx="-4.9701185"
     inkscape:cy="9.7964071"
     inkscape:window-width="2640"
     inkscape:window-height="1032"
     inkscape:window-x="0"
     inkscape:window-y="0"
     inkscape:window-maximized="0"
     inkscape:current-layer="svg2" />
  <path
     d="M 1.8334399,0.04990922 C 1.0373028,0.22682856 0.50022624,0.63121564 0.18429884,1.3136188 L 0.0073795,1.6927317 v 6.2553625 c 0,5.9836648 0.00631855,6.2679998 0.12005241,6.5712898 0.24642337,0.657129 0.75822576,1.137339 1.42799189,1.345851 0.3159274,0.101097 0.865641,0.107415 6.3817334,0.107415 5.5603218,0 6.0594878,-0.0063 6.3880518,-0.107415 0.745589,-0.233786 1.26371,-0.751907 1.497496,-1.497496 0.101097,-0.328565 0.107415,-0.82773 0.107415,-6.388052 0,-5.5603223 -0.0063,-6.0594876 -0.107415,-6.3880521 C 15.595237,0.87132046 15.083435,0.34056243 14.363121,0.1004576 14.05983,-6.39164e-4 13.566984,-0.01327626 8.1267137,-0.02591336 3.3814841,-0.0322319 2.1430487,-0.01959481 1.8334399,0.04990922 Z M 8.6764274,2.7416107 c 0.4359798,0.1642822 0.9098709,0.6192177 1.1120644,1.0551975 0.2021935,0.4422983 0.195875,1.257391 -0.018956,1.6870523 -0.1832379,0.3791129 -0.587625,0.7835 -0.9351451,0.9414637 L 8.5816491,6.539058 8.5500564,9.3571304 C 8.5184637,12.213114 8.4805524,12.66805 8.2467661,13.243037 8.0761653,13.647425 7.7602379,13.558965 7.5959556,13.047162 7.4127178,12.497449 7.3748065,11.821364 7.3684879,9.1802111 V 6.5516951 L 7.1536573,6.4758725 C 6.7998186,6.3495016 6.3827944,5.9261589 6.1616453,5.4838605 5.9215404,4.9973323 5.8899477,4.4792114 6.066867,3.9547719 6.2501049,3.3987397 6.8377299,2.849026 7.4316734,2.6657881 7.7476008,2.5710099 8.303633,2.6089212 8.6764274,2.7416107 Z"
     id="path3"
     style="fill:#000000;stroke:none;stroke-width:0.00631855" />
  <path
     d="M 7.1031089,3.5314292 C 6.5091654,3.8473566 6.7492702,4.7761831 7.4190363,4.7698646 7.7349637,4.763546 7.911883,4.6561307 8.0319355,4.4033888 8.1583064,4.1380098 8.1519879,4.0053203 8.0003427,3.7588969 7.8044677,3.4366509 7.4379919,3.3481913 7.1031089,3.5314292 Z"
     id="path4"
     style="fill:#000000;stroke:none;stroke-width:0.00631855" />
</svg>
