<?xml version="1.0" encoding="UTF-8" standalone="no"?>
<!-- Created with Inkscape (http://www.inkscape.org/) -->

<svg
   width="511.99997"
   height="511.99997"
   viewBox="0 0 135.46666 135.46666"
   version="1.1"
   id="svg1"
   xml:space="preserve"
   sodipodi:docname="icon.svg"
   inkscape:version="1.4.2 (ebf0e940, 2025-05-08)"
   xmlns:inkscape="http://www.inkscape.org/namespaces/inkscape"
   xmlns:sodipodi="http://sodipodi.sourceforge.net/DTD/sodipodi-0.dtd"
   xmlns:xlink="http://www.w3.org/1999/xlink"
   xmlns="http://www.w3.org/2000/svg"
   xmlns:svg="http://www.w3.org/2000/svg"><sodipodi:namedview
     id="namedview1"
     pagecolor="#ffffff"
     bordercolor="#000000"
     borderopacity="0.25"
     inkscape:showpageshadow="2"
     inkscape:pageopacity="0.0"
     inkscape:pagecheckerboard="0"
     inkscape:deskcolor="#d1d1d1"
     inkscape:zoom="1.4803959"
     inkscape:cx="304.98598"
     inkscape:cy="274.5887"
     inkscape:window-width="3440"
     inkscape:window-height="1384"
     inkscape:window-x="0"
     inkscape:window-y="0"
     inkscape:window-maximized="0"
     inkscape:current-layer="svg1" /><defs
     id="defs1"><linearGradient
       id="linearGradient5"><stop
         style="stop-color:#bc936d;stop-opacity:1;"
         offset="0"
         id="stop5" /><stop
         style="stop-color:#eedaa8;stop-opacity:1;"
         offset="1"
         id="stop6" /></linearGradient><linearGradient
       xlink:href="#linearGradient5"
       id="linearGradient6"
       x1="66.692711"
       y1="133.82927"
       x2="67.340195"
       y2="1.6373861"
       gradientUnits="userSpaceOnUse"
       gradientTransform="matrix(0.85000233,0,0,0.85000233,10.159842,10.159839)" /><linearGradient
       inkscape:collect="always"
       xlink:href="#linearGradient1"
       id="linearGradient3"
       gradientUnits="userSpaceOnUse"
       x1="54.325882"
       y1="258.19452"
       x2="216.24152"
       y2="22.920071"
       gradientTransform="matrix(1.2857141,0,0,1.2857141,-19.352373,-19.352375)" /><linearGradient
       id="linearGradient1"
       inkscape:collect="always"><stop
         style="stop-color:#b88e69;stop-opacity:1;"
         offset="0.49509269"
         id="stop1" /><stop
         style="stop-color:#f0dcaa;stop-opacity:1;"
         offset="1"
         id="stop2" /></linearGradient><linearGradient
       inkscape:collect="always"
       xlink:href="#linearGradient1"
       id="linearGradient2"
       gradientUnits="userSpaceOnUse"
       x1="54.325882"
       y1="258.19452"
       x2="216.24152"
       y2="22.920071"
       gradientTransform="matrix(1.2857141,0,0,1.2857141,-19.352373,-19.352375)" /></defs><path
     d="m 60.416494,8.7467472 c -1.198269,0.8351575 -2.904896,3.6674318 -3.376941,5.5919238 l -0.399424,1.77925 -3.086452,0.145245 c -3.30432,0.181555 -4.611523,0.762535 -5.482992,2.505473 -0.689913,1.307202 -0.61729,9.513535 0.07262,10.820737 1.125648,2.178672 1.379826,2.214983 19.499116,2.214983 14.923905,0 16.557908,-0.07262 17.719867,-0.6536 1.997115,-0.980403 2.541784,-2.469163 2.541784,-7.080685 0,-6.463394 -0.871469,-7.55273 -6.209215,-7.806908 -3.195387,-0.145245 -3.231698,-0.181556 -3.231698,-1.125647 -0.03631,-1.379826 -1.19827,-3.740055 -2.72334,-5.4466809 L 74.396302,8.2020789 h -6.608639 c -5.228813,0 -6.753884,0.1089385 -7.371174,0.5446683 z m 8.714688,4.2120998 c 1.452448,0.762535 2.432852,1.888182 2.650719,3.122763 0.472046,2.578095 -1.48876,4.829389 -4.2121,4.829389 -2.069739,0 -3.994232,-1.81556 -3.994232,-3.776365 0,-3.268007 2.977519,-5.482991 5.555613,-4.175787 z"
     id="path1-0"
     style="display:inline;fill:url(#linearGradient2);fill-opacity:1;stroke:none;stroke-width:0.0363111" /><path
     id="path2-4"
     style="display:inline;fill:url(#linearGradient3);fill-opacity:1;stroke:none;stroke-width:0.0363111"
     d="m 42.152051,19.821333 -1.162057,0.03654 c -0.653602,0.03631 -2.215045,0.181876 -3.449626,0.363432 -5.773467,0.726224 -9.803789,4.175769 -11.219918,9.586131 -0.726224,2.687022 -0.726224,84.822644 0,87.509674 1.016713,3.88528 3.631019,7.1169 6.862709,8.53302 3.195377,1.41614 5.192261,1.48892 36.020414,1.38 l 29.775606,-0.10903 2.251021,-0.83516 c 2.57809,-0.9804 5.1562,-3.08636 6.4634,-5.30134 2.03342,-3.44955 1.99723,-2.65074 1.99723,-47.313422 0,-29.085215 -0.10877,-41.685114 -0.39932,-43.028628 -1.3072,-6.209201 -5.33796,-9.695306 -12.019204,-10.457841 -1.634003,-0.217867 -3.231759,-0.363431 -3.449626,-0.363431 -0.363111,0 -0.471734,1.089412 -0.471734,4.284791 0,2.868577 -0.181937,4.938704 -0.58136,6.209589 -0.762527,2.650718 -3.19544,5.228526 -5.846157,6.208928 -1.960799,0.726224 -2.57782,0.762714 -19.861924,0.653781 L 49.232684,37.069402 47.235462,35.94389 c -2.142353,-1.234582 -4.067043,-3.631407 -4.720644,-5.882702 -0.18155,-0.726224 -0.362767,-3.34046 -0.362767,-5.809615 z M 66.371182,55.41187 c 2.212065,-0.04274 5.032868,0.139076 6.69993,0.481036 5.281398,1.082876 9.46105,3.343543 13.374606,7.238101 4.008547,4.008546 6.326269,8.264564 7.523132,13.868929 0.531941,2.526712 0.474926,7.99759 -0.09501,10.619291 -2.374727,10.638791 -10.58185,18.655823 -21.220643,20.745593 -1.785796,0.36095 -8.093343,0.36095 -9.879135,0 -3.685583,-0.72192 -7.978533,-2.64008 -10.942195,-4.86283 -1.994778,-1.50083 -4.901919,-4.50261 -6.155777,-6.364402 -2.051764,-3.058653 -3.495494,-6.554579 -4.198417,-10.16417 -0.493945,-2.54571 -0.455531,-7.732322 0.07641,-10.202038 2.488716,-11.398708 11.531323,-19.81441 22.873037,-21.23925 0.536684,-0.0665 1.206716,-0.106008 1.944065,-0.120266 z m 0.261779,4.585106 c -0.601698,0.01132 -1.146439,0.04211 -1.57864,0.09435 -8.834001,1.13987 -16.338404,7.656097 -18.618145,16.167127 -2.070762,7.732123 0.03797,15.654446 5.699324,21.372796 4.502491,4.559481 10.239805,6.763641 16.775067,6.478671 7.922094,-0.34196 15.103416,-5.091841 18.656012,-12.368018 3.837565,-7.827105 2.71683,-17.097783 -2.887531,-23.861013 C 81.582399,64.157309 76.927971,61.383246 72.064529,60.376358 70.753676,60.10564 68.438056,59.96314 66.632961,59.99698 Z m 13.380588,8.621405 c 0.437564,0.0051 0.648313,0.214266 0.9036,0.534853 0.284967,0.379957 0.379899,0.703305 0.322904,1.10226 -0.170982,1.025882 -7.694038,16.280893 -8.358966,16.945817 -0.721917,0.721921 -16.337781,8.416104 -17.078701,8.416104 -0.265968,0 -0.70301,-0.170673 -0.987977,-0.398649 -0.987889,-0.778912 -0.855208,-1.158825 3.343318,-9.764855 2.108763,-4.350511 4.046727,-8.150011 4.312696,-8.453975 0.360958,-0.398955 2.811882,-1.691158 8.473241,-4.464847 6.047256,-2.951792 8.107245,-3.928134 9.069885,-3.916708 z M 67.846841,78.93736 c -0.284967,-0.0095 -0.579277,0.07618 -1.063722,0.24716 -2.051769,0.721922 -2.773908,2.830411 -1.558045,4.654202 1.253859,1.918786 4.179656,1.690726 5.243538,-0.38004 0.835905,-1.652816 0.189609,-3.362511 -1.615185,-4.198417 -0.446449,-0.208979 -0.721616,-0.313406 -1.006586,-0.322905 z" /></svg>
