<?xml version="1.0" encoding="UTF-8" standalone="no"?>
<svg
   version="1.1"
   viewBox="0 0 32 32"
   id="svg2"
   width="32"
   height="32"
   sodipodi:docname="icon-check.svg"
   inkscape:version="1.4.2 (ebf0e940, 2025-05-08)"
   xmlns:inkscape="http://www.inkscape.org/namespaces/inkscape"
   xmlns:sodipodi="http://sodipodi.sourceforge.net/DTD/sodipodi-0.dtd"
   xmlns="http://www.w3.org/2000/svg"
   xmlns:svg="http://www.w3.org/2000/svg">
  <sodipodi:namedview
     id="namedview1"
     pagecolor="#ffffff"
     bordercolor="#000000"
     borderopacity="0.25"
     inkscape:showpageshadow="2"
     inkscape:pageopacity="0.0"
     inkscape:pagecheckerboard="0"
     inkscape:deskcolor="#d1d1d1"
     inkscape:zoom="20.06667"
     inkscape:cx="18.63787"
     inkscape:cy="22.450162"
     inkscape:window-width="3440"
     inkscape:window-height="1384"
     inkscape:window-x="0"
     inkscape:window-y="0"
     inkscape:window-maximized="0"
     inkscape:current-layer="svg2" />
  <defs
     id="defs2" />
  <path
     d="m 13.702413,25.879652 c -0.364695,0 -0.700219,-0.08024 -1.006572,-0.240697 -0.291759,-0.160464 -0.576223,-0.415752 -0.853387,-0.765861 l -5.3391689,-6.56456 c -0.3355233,-0.452225 -0.503285,-0.904448 -0.503285,-1.356672 0,-0.481405 0.1604647,-0.889864 0.4813944,-1.225377 0.3355234,-0.350111 0.7366902,-0.525167 1.2034998,-0.525167 0.3063423,0 0.5835127,0.06565 0.8315088,0.196944 0.2625783,0.116702 0.5251592,0.350105 0.7877392,0.700213 l 4.3107437,5.579863 9.080966,-14.5733094 c 0.408459,-0.6564538 0.919035,-0.9846806 1.531729,-0.9846806 0.452225,0 0.860684,0.1458798 1.225378,0.4376394 C 25.817653,6.849747 26,7.2363286 26,7.7177319 c 0,0.247996 -0.05835,0.4959912 -0.175051,0.743984 -0.102112,0.2334088 -0.218819,0.452228 -0.350114,0.6564576 L 15.474832,24.873103 c -0.437638,0.67104 -1.028445,1.006556 -1.772419,1.006549 z"
     id="text1"
     style="font-size:3.175px;font-family:'SF Pro';-inkscape-font-specification:'SF Pro';text-align:center;text-anchor:middle;fill:#4692fe;fill-opacity:1;stroke-width:3.7345;stroke-linecap:round;stroke-opacity:0.501437"
     aria-label="ô€¢" />
</svg>
