<?xml version="1.0" encoding="UTF-8" standalone="no"?>
<svg
   version="1.1"
   viewBox="0 0 15.9375 15.9453"
   id="svg2"
   sodipodi:docname="toolbar-icon.svg"
   inkscape:version="1.4.2 (ebf0e940, 2025-05-08)"
   xmlns:inkscape="http://www.inkscape.org/namespaces/inkscape"
   xmlns:sodipodi="http://sodipodi.sourceforge.net/DTD/sodipodi-0.dtd"
   xmlns="http://www.w3.org/2000/svg"
   xmlns:svg="http://www.w3.org/2000/svg">
  <defs
     id="defs2" />
  <sodipodi:namedview
     id="namedview2"
     pagecolor="#ffffff"
     bordercolor="#000000"
     borderopacity="0.25"
     inkscape:showpageshadow="2"
     inkscape:pageopacity="0.0"
     inkscape:pagecheckerboard="0"
     inkscape:deskcolor="#d1d1d1"
     inkscape:zoom="47.006794"
     inkscape:cx="5.7332138"
     inkscape:cy="9.2220712"
     inkscape:window-width="3440"
     inkscape:window-height="1384"
     inkscape:window-x="0"
     inkscape:window-y="0"
     inkscape:window-maximized="0"
     inkscape:current-layer="svg2" />
  <path
     d="m 4.6815085,15.47265 q -0.959554,0 -1.4424269,-0.489063 -0.476681,-0.482872 -0.476681,-1.454808 V 4.1437191 q 0,-0.9533637 0.458109,-1.4486175 0.4643,-0.4952538 1.392902,-0.4952538 h 0.148576 q -0.0062,0.037144 -0.0062,0.080479 0,0.037144 0,0.074288 v 0.5571606 q 0,0.1733388 0.02476,0.2847709 h -0.148576 q -0.433347,0 -0.656212,0.2600083 -0.216673,0.2600082 -0.216673,0.6995459 v 9.3602975 q 0,0.4643 0.241436,0.711927 0.247627,0.247627 0.7305,0.247627 h 6.4754434 q 0.482872,0 0.724308,-0.247627 0.247627,-0.247627 0.247627,-0.711927 V 4.1561005 q 0,-0.4395377 -0.222864,-0.6995459 Q 11.738863,3.1965463 11.305516,3.1965463 H 11.15694 Q 11.1817,3.0851142 11.1817,2.9117754 V 2.3546142 q 0,-0.037144 0,-0.074288 0,-0.043335 -0.0062,-0.080479 h 0.148576 q 0.928601,0 1.386711,0.4952538 0.4643,0.4952538 0.4643,1.4486175 v 9.3850595 q 0,0.971936 -0.482872,1.454808 -0.476682,0.489063 -1.436236,0.489063 z M 6.0558375,3.6175118 q -0.272389,0 -0.427156,-0.1609574 Q 5.4801055,3.2955969 5.4801055,3.0046353 V 2.3546146 q 0,-0.2909616 0.148576,-0.4519191 0.154767,-0.1609575 0.427156,-0.1609575 h 0.5695424 q 0.030954,-0.5262072 0.414775,-0.89764755 0.3900124,-0.3714404 0.9286009,-0.3714404 0.5385886,0 0.9224102,0.3714404 Q 9.2811784,1.2155308 9.3121319,1.741738 h 0.5695418 q 0.2723893,0 0.4209653,0.1609575 0.154767,0.1609575 0.154767,0.4519191 v 0.6500207 q 0,0.2909616 -0.154767,0.4519191 -0.148576,0.1609574 -0.4209653,0.1609574 z M 7.9687558,2.3298519 q 0.2228642,0 0.377631,-0.1609574 0.1609576,-0.1609576 0.1609576,-0.3776311 0,-0.2290549 -0.1609576,-0.3838217 Q 8.19162,1.2464842 7.9687558,1.2464842 q -0.2228643,0 -0.3838217,0.1609575 -0.1547668,0.1547668 -0.1547668,0.3838217 0,0.2166735 0.1547668,0.3776311 0.1609574,0.1609574 0.3838217,0.1609574 z"
     id="text1"
     style="font-size:12px;font-family:'SF Pro';-inkscape-font-specification:'SF Pro';text-align:center;text-anchor:middle;fill:#000000;stroke-width:1.05654;stroke-linecap:round;stroke-opacity:0.501437"
     aria-label="􀟹" />
</svg>
