<?xml version="1.0" encoding="UTF-8" standalone="no"?>
<svg
   version="1.1"
   viewBox="0 0 15.9375 15.9453"
   id="svg2"
   sodipodi:docname="toolbar-icon-on.svg"
   inkscape:version="1.4.2 (ebf0e940, 2025-05-08)"
   inkscape:export-filename="export/toolbar-icon-dark.svg"
   inkscape:export-xdpi="96"
   inkscape:export-ydpi="96"
   xmlns:inkscape="http://www.inkscape.org/namespaces/inkscape"
   xmlns:sodipodi="http://sodipodi.sourceforge.net/DTD/sodipodi-0.dtd"
   xmlns="http://www.w3.org/2000/svg"
   xmlns:svg="http://www.w3.org/2000/svg">
  <defs
     id="defs2" />
  <sodipodi:namedview
     id="namedview2"
     pagecolor="#ffffff"
     bordercolor="#000000"
     borderopacity="0.25"
     inkscape:showpageshadow="2"
     inkscape:pageopacity="0.0"
     inkscape:pagecheckerboard="0"
     inkscape:deskcolor="#d1d1d1"
     inkscape:zoom="39.417307"
     inkscape:cx="6.6721961"
     inkscape:cy="14.574816"
     inkscape:window-width="3440"
     inkscape:window-height="1384"
     inkscape:window-x="0"
     inkscape:window-y="0"
     inkscape:window-maximized="0"
     inkscape:current-layer="svg2"
     showguides="true" />
  <path
     d="m 5.151994,10.866789 h 5.633512 q 0.167148,0 0.284771,-0.117623 0.117623,-0.117622 0.117623,-0.28477 0,-0.160958 -0.117623,-0.27239 -0.117623,-0.117623 -0.284771,-0.117623 H 5.151994 q -0.1671481,0 -0.2847709,0.117623 -0.1176228,0.111432 -0.1176228,0.27239 0,0.167148 0.1176228,0.28477 0.1176228,0.117623 0.2847709,0.117623 z m 0,2.3896 h 3.2191497 q 0.1609575,0 0.2785803,-0.117623 0.1176228,-0.117623 0.1176228,-0.27858 0,-0.167148 -0.1176228,-0.284771 Q 8.5382919,12.457792 8.3711437,12.457792 H 5.151994 q -0.1671481,0 -0.2847709,0.117623 -0.1176228,0.117623 -0.1176228,0.284771 0,0.160957 0.1176228,0.27858 0.1176228,0.117623 0.2847709,0.117623 z M 6.6810901,9.1024475 q 0.1300042,0 0.1547669,-0.1300041 Q 6.910144,8.4895709 6.9906238,8.2048 7.0772928,7.920029 7.2444413,7.7528809 7.4053988,7.5919234 7.6839791,7.5114447 7.96875,7.4247757 8.4578131,7.3442965 8.5940079,7.3257245 8.5940079,7.1895297 q 0,-0.1361948 -0.1361948,-0.1547668 Q 7.96875,6.9542841 7.6839791,6.8738054 7.4053988,6.787136 7.2444413,6.6199878 7.0772932,6.4528397 6.9906238,6.1742594 6.910145,5.8894884 6.835857,5.406616 6.8110943,5.2766119 6.6810901,5.2766119 q -0.1361947,0 -0.1609574,0.1300041 Q 6.4458457,5.8894884 6.3591752,6.1742594 6.2725062,6.4528397 6.1053576,6.6199878 5.9444001,6.787136 5.6596291,6.8738054 5.381049,6.9542844 4.8919857,7.0347629 q -0.130004,0.024762 -0.130004,0.1547668 0,0.1361947 0.130004,0.1547668 0.4890633,0.080479 0.7676434,0.1671482 0.284771,0.080479 0.4457285,0.2414362 Q 6.2725058,7.920029 6.3591752,8.2048 6.4458442,8.4895709 6.5201327,8.9724434 6.5448947,9.1024475 6.6810901,9.1024475 Z M 4.6815029,15.47265 q -0.9595542,0 -1.4424267,-0.489064 Q 2.7623944,14.500714 2.7623944,13.528778 V 4.1375281 q 0,-0.9719355 0.4704911,-1.454808 Q 3.7033766,2.193657 4.6195962,2.193657 h 0.1423855 q 0,0.018572 0,0.043335 0,0.018572 0,0.037144 v 0.7304994 q 0,0.5819232 0.359059,0.9595542 Q 5.4800997,4.33563 6.0558322,4.33563 h 3.8258356 q 0.5757322,0 0.9347912,-0.3714404 0.359059,-0.377631 0.359059,-0.9595542 V 2.2741357 q 0,-0.018572 0,-0.037144 0,-0.024762 0,-0.043335 h 0.142386 q 0.916219,0 1.386711,0.4890631 0.470491,0.4828725 0.470491,1.454808 v 9.3912502 q 0,0.971936 -0.482873,1.454808 -0.476682,0.489064 -1.436236,0.489064 z M 6.0558322,3.6175117 q -0.2723896,0 -0.4271563,-0.1609575 Q 5.4800997,3.2955967 5.4800997,3.0046351 V 2.3546144 q 0,-0.2909615 0.1485762,-0.4519191 Q 5.7834426,1.7417379 6.0558322,1.7417379 H 6.625374 Q 6.656328,1.2155307 7.0401492,0.8440904 7.4301615,0.47265 7.96875,0.47265 q 0.5385885,0 0.9224102,0.3714404 0.3900124,0.3714403 0.4209657,0.8976475 h 0.5695419 q 0.2723892,0 0.4209662,0.1609574 0.154766,0.1609576 0.154766,0.4519191 v 0.6500207 q 0,0.2909616 -0.154766,0.4519191 -0.148577,0.1609575 -0.4209662,0.1609575 z M 7.96875,2.3298518 q 0.2228642,0 0.377631,-0.1609575 0.1609575,-0.1609575 0.1609575,-0.377631 0,-0.2290549 -0.1609575,-0.3838218 Q 8.1916142,1.2464841 7.96875,1.2464841 q -0.2228642,0 -0.3838216,0.1609574 -0.1547669,0.1547669 -0.1547669,0.3838218 0,0.2166735 0.1547669,0.377631 0.1609574,0.1609575 0.3838216,0.1609575 z"
     id="text1"
     style="font-size:12px;font-family:'SF Pro';-inkscape-font-specification:'SF Pro';text-align:center;text-anchor:middle;stroke-width:1.05654;stroke-linecap:round;stroke-opacity:0.501437"
     aria-label="􃔀" />
</svg>
