<?xml version="1.0" encoding="UTF-8" standalone="no"?>
<svg
   version="1.1"
   viewBox="0 0 15.9375 15.9453"
   id="svg2"
   sodipodi:docname="toolbar-icon.svg"
   inkscape:version="1.3.2 (091e20e, 2023-11-25)"
   xmlns:inkscape="http://www.inkscape.org/namespaces/inkscape"
   xmlns:sodipodi="http://sodipodi.sourceforge.net/DTD/sodipodi-0.dtd"
   xmlns="http://www.w3.org/2000/svg"
   xmlns:svg="http://www.w3.org/2000/svg">
  <defs
     id="defs2" />
  <sodipodi:namedview
     id="namedview2"
     pagecolor="#ffffff"
     bordercolor="#000000"
     borderopacity="0.25"
     inkscape:showpageshadow="2"
     inkscape:pageopacity="0.0"
     inkscape:pagecheckerboard="0"
     inkscape:deskcolor="#d1d1d1"
     inkscape:zoom="46.115038"
     inkscape:cx="6.1151418"
     inkscape:cy="8.5330082"
     inkscape:window-width="3440"
     inkscape:window-height="1384"
     inkscape:window-x="0"
     inkscape:window-y="0"
     inkscape:window-maximized="0"
     inkscape:current-layer="svg2" />
  <g
     id="g1"
     transform="matrix(0.87499989,0,0,0.87499989,0.9960953,0.99658218)">
    <path
       d="M 6.9697389,0.0461559 C 6.8080237,0.15886648 6.5777021,0.54110236 6.5139961,0.80082674 L 6.460091,1.0409493 6.0435519,1.0605511 c -0.4459418,0.024502 -0.6223584,0.1029097 -0.7399694,0.3381318 -0.093109,0.1764165 -0.083308,1.2839205 0.0098,1.460337 0.1519143,0.2940276 0.1862175,0.2989281 2.631547,0.2989281 2.0140891,0 2.2346095,-0.0098 2.3914245,-0.088208 0.269525,-0.1323124 0.343032,-0.3332313 0.343032,-0.9555897 0,-0.8722819 -0.117611,-1.0192957 -0.8379785,-1.0535989 C 9.410168,1.0409493 9.4052675,1.0360488 9.4052675,0.90863686 9.400367,0.72241938 9.2435523,0.40388948 9.037733,0.17356786 L 8.856416,-0.027351 H 7.9645323 c -0.7056663,0 -0.9114856,0.01470138 -0.9947934,0.0735069 z M 8.1458493,0.61460926 C 8.3418677,0.71751892 8.4741801,0.86943318 8.5035829,1.0360488 8.5672888,1.3839815 8.302664,1.68781 7.9351295,1.68781 c -0.2793262,0 -0.5390506,-0.245023 -0.5390506,-0.5096478 0,-0.44104144 0.4018377,-0.7399695 0.7497704,-0.56355294 z"
       id="path1-5"
       style="fill:#000000;fill-opacity:1;stroke:none;stroke-width:0.00490046" />
    <path
       d="M 3.6080233,1.6437059 C 3.0885746,1.7662174 2.6377322,2.1582542 2.4368134,2.6630015 L 2.3241028,2.9374273 v 5.8560497 5.85605 l 0.1127106,0.274425 c 0.1568147,0.396938 0.4410414,0.695866 0.8330782,0.886984 l 0.3283308,0.161715 h 4.3124048 c 4.1114858,0 4.3222058,-0.0049 4.5574278,-0.09311 0.494946,-0.186217 0.818377,-0.514548 1.019296,-1.043798 l 0.10781,-0.284227 0.0147,-5.5620216 c 0.0098,-3.9056666 0,-5.6551308 -0.0392,-5.8756515 C 13.453047,2.4424808 13.080612,1.9377335 12.551363,1.7319141 12.370046,1.6633077 12.120122,1.6143031 11.845697,1.5996017 l -0.431241,-0.019602 v 0.5390506 0.5390506 l 0.235222,0.034303 c 0.328331,0.049005 0.588055,0.2107198 0.715467,0.4410414 l 0.10291,0.1960184 0.0147,5.390506 c 0.0147,5.9883623 0.0294,5.6502303 -0.308729,5.9491593 -0.09311,0.08331 -0.254824,0.166615 -0.352833,0.186217 -0.102909,0.0196 -1.8817764,0.0392 -3.9595714,0.0392 H 4.0882684 L 3.8677477,14.772038 C 3.7060325,14.68383 3.6129238,14.585821 3.5247155,14.404504 L 3.402204,14.159481 3.3875026,8.9453913 c -0.0049,-3.376417 0.0049,-5.3071982 0.039204,-5.4836148 C 3.5100141,2.9962328 3.7599376,2.7708117 4.264685,2.6973048 L 4.4852057,2.6630015 V 2.1288514 l -0.0049,-0.5390506 -0.3430322,0.0049 c -0.1862175,0.0049 -0.42634,0.024502 -0.5292502,0.049005 z"
       id="path2-8"
       style="fill:#000000;fill-opacity:1;stroke:none;stroke-width:0.00490046" />
  </g>
</svg>
