<?xml version="1.0" encoding="UTF-8" standalone="no"?>
<svg
   version="1.1"
   viewBox="0 0 15.9375 15.9453"
   id="svg2"
   sodipodi:docname="toolbar-icon-on.svg"
   inkscape:version="1.3.2 (091e20e, 2023-11-25)"
   inkscape:export-filename="export/toolbar-icon-dark.svg"
   inkscape:export-xdpi="96"
   inkscape:export-ydpi="96"
   xmlns:inkscape="http://www.inkscape.org/namespaces/inkscape"
   xmlns:sodipodi="http://sodipodi.sourceforge.net/DTD/sodipodi-0.dtd"
   xmlns="http://www.w3.org/2000/svg"
   xmlns:svg="http://www.w3.org/2000/svg">
  <defs
     id="defs2" />
  <sodipodi:namedview
     id="namedview2"
     pagecolor="#ffffff"
     bordercolor="#000000"
     borderopacity="0.25"
     inkscape:showpageshadow="2"
     inkscape:pageopacity="0.0"
     inkscape:pagecheckerboard="0"
     inkscape:deskcolor="#d1d1d1"
     inkscape:zoom="54.390438"
     inkscape:cx="8.8250807"
     inkscape:cy="8.9813581"
     inkscape:window-width="3440"
     inkscape:window-height="1384"
     inkscape:window-x="0"
     inkscape:window-y="0"
     inkscape:window-maximized="1"
     inkscape:current-layer="svg2"
     showguides="true" />
  <g
     transform="matrix(0.0042701,0,0,-0.0042701,-1.7449333,33.852428)"
     fill="#000000"
     stroke="none"
     id="g2">
    <path
       d="m 2073,7685 c -33,-23 -80,-101 -93,-154 l -11,-49 -85,-4 c -91,-5 -127,-21 -151,-69 -19,-36 -17,-262 2,-298 31,-60 38,-61 537,-61 411,0 456,2 488,18 55,27 70,68 70,195 0,176 -24,206 -168,216 l -86,6 -8,38 c -11,51 -32,90 -75,138 l -35,39 h -182 c -144,0 -186,-3 -203,-15 z m 278,-141 c 77,-73 26,-194 -81,-194 -57,0 -110,50 -110,104 0,110 114,164 191,90 z"
       id="path1-1" />
    <path
       d="m 1443,7369 c -159,-20 -270,-115 -309,-264 -20,-74 -20,-2336 0,-2410 31,-119 108,-205 219,-246 l 62,-24 810,-3 c 547,-2 833,1 880,8 177,28 278,120 314,288 15,74 16,2289 0,2364 -35,167 -144,265 -321,288 -130,17 -118,28 -118,-108 0,-79 -5,-136 -16,-171 -21,-73 -88,-144 -161,-171 -54,-20 -71,-21 -547,-18 l -491,3 -55,31 c -59,34 -112,100 -130,162 -5,20 -10,92 -10,160 v 122 l -32,-1 c -18,-1 -61,-5 -95,-10 z M 2954,6341 c 36,-34 36,-92 0,-120 -26,-21 -34,-21 -684,-21 h -657 l -23,25 c -41,44 -23,111 35,136 11,4 309,7 662,6 l 641,-2 z m 0,-502 c 36,-28 36,-86 0,-120 l -26,-24 -631,-3 c -424,-2 -644,0 -668,8 -27,7 -41,19 -53,44 -18,37 -14,59 17,94 l 20,22 h 657 c 650,0 658,0 684,-21 z m -619,-534 c 35,-34 33,-78 -4,-116 l -29,-29 h -331 c -225,0 -338,4 -355,11 -30,14 -59,70 -50,96 4,10 16,28 27,41 l 20,22 h 349 349 z"
       id="path2" />
  </g>
</svg>
